<svg xmlns="http://www.w3.org/2000/svg" xmlns:xlink="http://www.w3.org/1999/xlink" width="500" zoomAndPan="magnify" viewBox="0 0 375 374.999991" height="500" preserveAspectRatio="xMidYMid meet" version="1.0"><defs><g/><clipPath id="1e08b0b551"><path d="M 7.601562 31 L 179 31 L 179 191 L 7.601562 191 Z M 7.601562 31 " clip-rule="nonzero"/></clipPath><clipPath id="c22bf6429e"><path d="M 103 278 L 275 278 L 275 354.6875 L 103 354.6875 Z M 103 278 " clip-rule="nonzero"/></clipPath><clipPath id="dc9be80b32"><path d="M 3 23 L 47 23 L 47 75.160156 L 3 75.160156 Z M 3 23 " clip-rule="nonzero"/></clipPath><clipPath id="49a4398ecf"><path d="M 45 23 L 90 23 L 90 75.160156 L 45 75.160156 Z M 45 23 " clip-rule="nonzero"/></clipPath><clipPath id="291cabc1ba"><rect x="0" width="373" y="0" height="76"/></clipPath><clipPath id="d058b3d1dc"><rect x="0" width="153" y="0" height="25"/></clipPath></defs><g clip-path="url(#1e08b0b551)"><path fill="#ffffff" d="M 89.941406 154.707031 C 94.382812 154.621094 97.253906 153.835938 101.257812 153.140625 C 103.871094 151.75 106.394531 151.226562 109.003906 149.570312 C 110.136719 148.875 111.617188 147.746094 112.398438 146.960938 C 113.53125 145.742188 113.878906 144.957031 115.359375 143.652344 C 116.316406 143.21875 115.621094 143.132812 116.753906 144.089844 C 118.929688 146.003906 119.625 150.269531 121.539062 154.011719 C 122.234375 155.316406 123.105469 156.621094 123.628906 157.667969 C 124.847656 159.058594 124.671875 160.015625 126.242188 160.453125 C 126.847656 161.585938 127.457031 162.367188 128.417969 163.324219 C 129.636719 164.628906 129.636719 165.152344 130.765625 166.023438 C 130.855469 167.15625 131.289062 167.503906 131.550781 168.808594 C 131.898438 170.375 131.898438 171.59375 131.8125 173.160156 L 131.113281 183.691406 C 130.941406 186.914062 130.503906 187.4375 131.375 188.21875 L 139.644531 188.21875 C 141.039062 182.300781 142.777344 172.550781 144.78125 167.675781 L 146.433594 164.890625 C 147.566406 161.496094 149.65625 159.496094 150.699219 155.230469 C 151.742188 150.964844 154.617188 147.308594 154.703125 142.957031 C 155.398438 92.558594 178.554688 113.101562 178.03125 84.984375 C 173.070312 77.414062 172.023438 77.761719 175.246094 71.234375 C 181.949219 57.828125 171.503906 19.527344 135.640625 35.71875 C 133.117188 36.851562 130.855469 38.070312 128.328125 39.375 C 121.105469 42.945312 123.976562 45.03125 122.496094 50.515625 L 7.601562 50.515625 L 50.25 121.980469 C 50.25 124.9375 50.25 127.898438 50.597656 129.898438 C 50.773438 133.46875 51.644531 145.21875 53.644531 147.136719 C 53.644531 148.527344 53.820312 148.703125 54.515625 150.007812 L 55.996094 152.445312 C 57.648438 156.363281 60.085938 158.015625 64.003906 157.753906 C 65.136719 157.667969 66.875 157.492188 67.660156 156.972656 C 69.140625 157.144531 70.707031 157.058594 72.273438 156.972656 L 87.59375 184.128906 L 33.453125 190.308594 C 50.859375 190.308594 79.847656 190.308594 97.253906 190.308594 L 100.648438 190.308594 L 81.238281 155.839844 L 87.417969 154.792969 Z M 78.191406 124.328125 C 77.148438 125.894531 76.453125 127.8125 74.625 128.421875 L 74.363281 127.113281 C 74.015625 124.851562 73.230469 121.023438 71.839844 119.628906 C 71.402344 118.324219 70.792969 116.320312 69.574219 115.449219 C 69.140625 114.144531 69.140625 114.144531 68.269531 112.925781 C 67.3125 111.445312 66.703125 110.578125 65.917969 108.921875 C 65.398438 107.703125 64.875 105.789062 64.351562 104.832031 C 63.917969 102.308594 63.480469 100.132812 63.222656 97.347656 C 63.132812 96.039062 62.960938 94.820312 62.871094 93.601562 C 62.785156 91.863281 63.132812 91.253906 63.65625 90.035156 C 64.613281 89.425781 64.003906 89.164062 65.398438 88.902344 C 67.746094 90.121094 71.230469 89.25 73.316406 87.945312 C 74.535156 87.160156 75.058594 86.378906 76.101562 85.855469 C 77.671875 85.074219 79.148438 85.769531 80.367188 84.8125 C 84.199219 84.984375 86.027344 81.328125 83.851562 79.328125 C 82.109375 73.929688 83.589844 74.976562 81.066406 72.015625 C 80.019531 70.796875 80.105469 70.886719 79.238281 70.535156 C 77.84375 68.359375 74.449219 66.445312 70.792969 66.96875 C 64.003906 70.796875 52.425781 76.714844 49.382812 84.203125 C 48.421875 86.550781 48.511719 93.429688 49.816406 95.34375 L 50.597656 106.398438 L 22.136719 58.523438 L 120.929688 58.523438 C 120.929688 64.007812 123.019531 66.96875 122.585938 70.710938 C 122.0625 74.628906 120.496094 76.804688 121.277344 81.15625 C 122.757812 82.113281 124.5 81.9375 126.328125 82.984375 C 126.675781 83.507812 127.285156 84.464844 127.546875 84.898438 C 126.328125 86.03125 127.980469 86.378906 128.9375 86.550781 C 127.371094 89.078125 129.285156 90.644531 130.15625 90.816406 C 132.160156 98.476562 131.375 99.085938 139.820312 96.996094 C 141.734375 96.5625 142.082031 96.039062 143.648438 96.648438 L 145.304688 97.867188 C 145.390625 97.957031 145.476562 98.128906 145.5625 98.214844 L 146.433594 99.347656 C 145.824219 100.742188 146.519531 100.566406 145.824219 100.742188 C 145.042969 101 144.433594 101.261719 143.910156 101.4375 C 140.863281 101.4375 134.25 103.789062 131.460938 104.570312 L 124.0625 102.742188 C 117.273438 101 106.742188 106.746094 101.867188 111.097656 C 98.734375 113.882812 96.90625 113.535156 95.164062 113.449219 C 89.332031 113.015625 80.890625 120.152344 78.191406 124.328125 Z M 78.191406 124.328125 " fill-opacity="1" fill-rule="nonzero"/></g><path fill="#ffffff" d="M 57.824219 266.382812 L 57.824219 263.339844 L 17.523438 265.078125 Z M 57.824219 266.382812 " fill-opacity="1" fill-rule="nonzero"/><path fill="#ffffff" d="M 314.863281 266.382812 L 355.25 264.816406 L 314.863281 263.339844 Z M 314.863281 266.382812 " fill-opacity="1" fill-rule="nonzero"/><g clip-path="url(#c22bf6429e)"><path fill="#ffffff" d="M 188.214844 338.195312 L 153.746094 278.484375 L 103.695312 278.484375 L 147.480469 285.621094 L 188.214844 354.386719 L 228.953125 285.96875 L 274.039062 278.484375 L 223.640625 278.484375 Z M 188.214844 338.195312 " fill-opacity="1" fill-rule="nonzero"/></g><path fill="#ffffff" d="M 291.101562 180.558594 L 311.292969 145.308594 C 308.945312 145.566406 304.15625 145.132812 302.15625 144.871094 C 302.066406 144.871094 301.980469 144.871094 301.980469 144.871094 L 277.609375 187.4375 L 281.003906 187.4375 C 298.761719 187.4375 321.828125 187.695312 339.582031 187.695312 Z M 291.101562 180.558594 " fill-opacity="1" fill-rule="nonzero"/><path fill="#ffffff" d="M 245.664062 56.347656 C 246.273438 57.132812 246.796875 57.914062 247.230469 58.613281 L 354.207031 58.613281 L 313.90625 123.980469 C 315.210938 127.984375 316.515625 132.078125 316.867188 135.210938 L 368.832031 50.167969 L 243.921875 50.167969 C 245.140625 51.996094 245.75 54.085938 245.664062 56.347656 Z M 245.664062 56.347656 " fill-opacity="1" fill-rule="nonzero"/><path fill="#be1c2d" d="M 176.898438 105.613281 C 176.550781 105.703125 176.289062 105.789062 175.941406 105.875 C 176.289062 105.789062 176.550781 105.703125 176.898438 105.613281 Z M 176.898438 105.613281 " fill-opacity="1" fill-rule="nonzero"/><path fill="#be1c2d" d="M 311.292969 145.308594 C 311.46875 145.308594 311.644531 145.308594 311.730469 145.21875 C 315.039062 144.609375 315.90625 142.347656 316.515625 138.953125 C 316.953125 138.082031 317.039062 136.691406 316.867188 135.121094 C 316.515625 131.988281 315.296875 127.8125 313.90625 123.894531 C 312.425781 119.453125 310.859375 115.191406 310.425781 113.015625 L 307.289062 103.527344 C 306.769531 102.65625 301.632812 89.511719 301.285156 88.121094 C 300.761719 87.597656 298.585938 81.851562 297.195312 80.199219 C 295.453125 78.109375 291.101562 76.195312 287.707031 76.976562 C 286.488281 76.28125 284.574219 76.28125 283.09375 76.28125 C 281.527344 76.195312 279.960938 76.195312 278.390625 76.105469 C 275.347656 76.019531 271.082031 75.0625 270.992188 78.371094 C 270.472656 78.894531 270.90625 78.285156 270.382812 79.152344 C 270.296875 79.328125 269.949219 80.023438 269.949219 80.023438 C 269.6875 80.71875 269.515625 81.328125 269.339844 81.851562 C 269.078125 82.722656 268.730469 83.59375 268.46875 84.375 C 267.859375 86.378906 267.597656 88.292969 269.078125 89.949219 C 270.90625 91.949219 270.035156 90.554688 270.820312 93.691406 C 277.523438 95.519531 277.695312 96.039062 279.523438 93.253906 L 287.183594 92.992188 C 287.445312 92.734375 288.054688 92.296875 288.402344 91.863281 C 289.535156 90.816406 288.578125 91.164062 290.492188 90.554688 C 292.230469 92.644531 293.449219 96.648438 294.234375 99.695312 C 295.015625 103.089844 295.453125 106.136719 295.367188 109.792969 C 295.277344 112.492188 294.320312 118.0625 295.714844 120.0625 L 295.800781 121.195312 C 295.367188 124.417969 296.324219 121.542969 288.578125 119.195312 C 279.351562 116.496094 274.824219 119.976562 269.863281 114.929688 C 268.730469 113.796875 264.117188 110.578125 263.59375 109.445312 C 262.027344 109.183594 260.113281 107.617188 258.199219 106.832031 C 254.890625 106.050781 252.976562 105.875 249.320312 105.964844 C 245.839844 106.050781 241.746094 106.222656 238.179688 105.789062 C 233.566406 105.265625 229.996094 103.351562 233.214844 96.648438 L 247.144531 98.566406 C 250.277344 99.347656 252.105469 96.648438 252.019531 94.210938 L 251.234375 90.816406 C 253.0625 90.46875 254.195312 89.6875 252.714844 87.511719 C 254.628906 86.640625 254.457031 85.074219 253.0625 82.984375 L 255.238281 80.460938 C 256.804688 78.71875 257.5 78.542969 255.414062 76.367188 L 250.625 71.753906 C 250.710938 65.488281 250.191406 62.789062 247.316406 58.4375 C 246.882812 57.742188 246.359375 57.042969 245.75 56.175781 C 245.839844 53.910156 245.230469 51.820312 244.097656 49.996094 C 238.527344 41.289062 220.074219 38.070312 205.1875 46.164062 C 163.84375 37.460938 189.347656 100.742188 176.988281 105.441406 C 193.613281 101.089844 203.1875 89.859375 196.308594 68.882812 C 199.792969 75.757812 203.796875 81.851562 208.671875 86.8125 C 207.886719 105.789062 199.703125 103.089844 194.394531 104.832031 C 185.777344 106.222656 179.773438 106.398438 172.894531 112.054688 C 170.457031 113.796875 166.191406 119.628906 165.148438 124.242188 L 164.105469 127.550781 L 163.582031 133.816406 C 163.496094 140.953125 163.496094 144.609375 161.667969 151.226562 C 161.320312 152.183594 159.578125 155.839844 159.492188 156.449219 C 154.53125 162.367188 153.136719 172.636719 150.960938 179.949219 C 150.613281 181.777344 149.742188 185 149.21875 187.785156 L 171.589844 187.785156 C 172.113281 184.5625 172.375 181.429688 172.546875 178.820312 C 172.722656 175.945312 172.984375 174.207031 174.027344 171.507812 C 174.898438 169.242188 176.203125 167.675781 176.898438 165.328125 C 178.207031 164.195312 180.46875 157.492188 181.6875 155.664062 C 182.46875 158.886719 186.5625 173.945312 186.824219 174.292969 C 186.472656 175.945312 186.648438 183.691406 186.5625 187.785156 L 244.878906 187.785156 C 245.664062 186.390625 245.488281 184.738281 245.925781 182.125 C 246.449219 178.382812 246.796875 176.121094 248.101562 172.898438 C 249.929688 170.898438 253.496094 165.238281 254.105469 161.933594 C 256.285156 157.144531 254.019531 150.789062 252.976562 145.566406 C 252.886719 143.738281 252.714844 140.695312 252.714844 139.996094 C 253.148438 137.996094 253.238281 137.734375 254.542969 136.691406 L 256.890625 135.730469 C 266.640625 135.035156 270.382812 139.214844 277.695312 141.128906 C 281.175781 143.828125 295.367188 144.089844 300.761719 144.4375 L 301.894531 144.609375 C 301.894531 144.609375 301.894531 144.609375 302.066406 144.609375 C 302.15625 144.609375 302.15625 144.609375 302.242188 144.609375 C 304.070312 145.21875 308.945312 145.566406 311.292969 145.308594 Z M 311.292969 145.308594 " fill-opacity="1" fill-rule="nonzero"/><g transform="matrix(1, 0, 0, 1, 1, 185)"><g clip-path="url(#291cabc1ba)"><g clip-path="url(#dc9be80b32)"><g fill="#ffffff" fill-opacity="1"><g transform="translate(5.415862, 59.831927)"><g><path d="M 3.5625 -26.3125 C 3.800781 -27.789062 4.007812 -29.007812 4.1875 -29.96875 C 4.363281 -30.9375 4.472656 -31.644531 4.515625 -32.09375 C 4.960938 -33.664062 5.484375 -34.75 6.078125 -35.34375 C 6.867188 -36.039062 8.03125 -36.460938 9.5625 -36.609375 C 10.101562 -36.710938 10.867188 -36.765625 11.859375 -36.765625 C 12.847656 -36.765625 14.082031 -36.765625 15.5625 -36.765625 L 31.859375 -36.765625 C 33.148438 -36.765625 34.226562 -36.765625 35.09375 -36.765625 C 35.957031 -36.765625 36.585938 -36.710938 36.984375 -36.609375 C 37.378906 -36.609375 37.75 -36.582031 38.09375 -36.53125 C 38.4375 -36.488281 38.707031 -36.414062 38.90625 -36.3125 C 39.644531 -36.164062 40.140625 -35.921875 40.390625 -35.578125 C 40.984375 -35.128906 41.304688 -34.363281 41.359375 -33.28125 L 41.359375 -30.390625 C 41.359375 -30.035156 41.316406 -29.515625 41.234375 -28.828125 C 41.160156 -28.140625 41.078125 -27.300781 40.984375 -26.3125 L 39.65625 -17.046875 L 38.765625 -10.453125 L 37.28125 -0.078125 L 36.609375 4.75 C 36.460938 6.03125 36.3125 7.113281 36.15625 8 C 36.007812 8.894531 35.890625 9.613281 35.796875 10.15625 C 35.492188 11.632812 35 12.769531 34.3125 13.5625 C 33.71875 14.25 32.78125 14.691406 31.5 14.890625 C 31 14.941406 30.164062 15.003906 29 15.078125 C 27.84375 15.148438 26.378906 15.1875 24.609375 15.1875 L -2.21875 15.1875 C -1.875 13.613281 -1.578125 12.304688 -1.328125 11.265625 C -1.085938 10.222656 -0.890625 9.457031 -0.734375 8.96875 C -0.191406 7.332031 0.519531 6.242188 1.40625 5.703125 C 2 5.304688 2.960938 5.035156 4.296875 4.890625 C 4.796875 4.796875 5.453125 4.75 6.265625 4.75 C 7.078125 4.75 8.023438 4.75 9.109375 4.75 L 21.9375 4.75 C 22.625 4.75 23.191406 4.734375 23.640625 4.703125 C 24.085938 4.679688 24.410156 4.671875 24.609375 4.671875 C 25.148438 4.523438 25.519531 4.351562 25.71875 4.15625 C 25.96875 3.90625 26.164062 3.457031 26.3125 2.8125 C 26.457031 2.375 26.601562 1.410156 26.75 -0.078125 L 9.703125 -0.078125 C 8.328125 -0.078125 7.164062 -0.0859375 6.21875 -0.109375 C 5.28125 -0.128906 4.539062 -0.164062 4 -0.21875 C 2.519531 -0.519531 1.554688 -1.066406 1.109375 -1.859375 C 0.816406 -2.398438 0.671875 -3.140625 0.671875 -4.078125 C 0.671875 -4.328125 0.679688 -4.570312 0.703125 -4.8125 C 0.722656 -5.0625 0.734375 -5.3125 0.734375 -5.5625 C 0.835938 -6 0.925781 -6.625 1 -7.4375 C 1.070312 -8.257812 1.179688 -9.265625 1.328125 -10.453125 C 1.484375 -11.285156 1.660156 -12.394531 1.859375 -13.78125 C 2.054688 -15.164062 2.273438 -16.796875 2.515625 -18.671875 C 2.710938 -19.960938 2.894531 -21.25 3.0625 -22.53125 C 3.238281 -23.8125 3.40625 -25.070312 3.5625 -26.3125 Z M 16.75 -26.3125 C 15.8125 -26.3125 15.242188 -26.285156 15.046875 -26.234375 C 14.703125 -26.234375 14.453125 -26.109375 14.296875 -25.859375 C 14.253906 -25.816406 14.132812 -25.519531 13.9375 -24.96875 C 13.9375 -24.769531 13.859375 -24.300781 13.703125 -23.5625 L 12.828125 -17.265625 L 11.9375 -10.453125 L 25.421875 -10.453125 C 25.816406 -10.453125 26.148438 -10.460938 26.421875 -10.484375 C 26.691406 -10.515625 26.898438 -10.53125 27.046875 -10.53125 C 27.492188 -10.625 27.765625 -10.71875 27.859375 -10.8125 C 28.054688 -10.914062 28.179688 -11.113281 28.234375 -11.40625 C 28.335938 -11.5625 28.410156 -11.785156 28.453125 -12.078125 C 28.503906 -12.378906 28.554688 -12.726562 28.609375 -13.125 L 30.453125 -26.3125 Z M 16.75 -26.3125 "/></g></g></g></g><g clip-path="url(#49a4398ecf)"><g fill="#ffffff" fill-opacity="1"><g transform="translate(47.503982, 59.831927)"><g><path d="M 2.078125 -36.828125 L 8.453125 -36.828125 C 10.273438 -36.828125 11.554688 -36.753906 12.296875 -36.609375 C 13.285156 -36.460938 13.953125 -36.164062 14.296875 -35.71875 C 14.691406 -35.320312 14.890625 -34.554688 14.890625 -33.421875 L 14.890625 -32.53125 C 14.890625 -32.238281 14.828125 -31.570312 14.703125 -30.53125 C 14.585938 -29.5 14.40625 -28.117188 14.15625 -26.390625 L 11.9375 -10.453125 L 25.421875 -10.453125 C 26.410156 -10.453125 27.050781 -10.5 27.34375 -10.59375 C 27.59375 -10.644531 27.789062 -10.742188 27.9375 -10.890625 C 28.132812 -11.191406 28.257812 -11.488281 28.3125 -11.78125 C 28.363281 -11.925781 28.410156 -12.109375 28.453125 -12.328125 C 28.503906 -12.554688 28.554688 -12.820312 28.609375 -13.125 L 30.453125 -26.390625 L 31.9375 -36.828125 C 33.269531 -36.828125 34.367188 -36.828125 35.234375 -36.828125 C 36.097656 -36.828125 36.753906 -36.804688 37.203125 -36.765625 C 38.734375 -36.710938 39.820312 -36.4375 40.46875 -35.9375 C 41.207031 -35.5 41.578125 -34.6875 41.578125 -33.5 C 41.628906 -33.394531 41.65625 -33.144531 41.65625 -32.75 C 41.65625 -31.769531 41.429688 -29.648438 40.984375 -26.390625 L 38.765625 -10.453125 L 37.28125 0 L 36.609375 4.75 C 36.460938 6.082031 36.3125 7.191406 36.15625 8.078125 C 36.007812 8.960938 35.890625 9.65625 35.796875 10.15625 C 35.492188 11.539062 35.023438 12.648438 34.390625 13.484375 C 33.992188 14.023438 33.25 14.445312 32.15625 14.75 C 31.125 15.039062 28.609375 15.1875 24.609375 15.1875 L -2.21875 15.1875 C -1.875 13.613281 -1.585938 12.332031 -1.359375 11.34375 C -1.140625 10.351562 -0.957031 9.609375 -0.8125 9.109375 C -0.21875 7.378906 0.519531 6.242188 1.40625 5.703125 C 2.195312 5.210938 3.1875 4.941406 4.375 4.890625 C 4.820312 4.796875 5.453125 4.75 6.265625 4.75 C 7.078125 4.75 8.023438 4.75 9.109375 4.75 L 21.9375 4.75 C 22.625 4.75 23.164062 4.734375 23.5625 4.703125 C 23.957031 4.679688 24.253906 4.671875 24.453125 4.671875 C 25.148438 4.523438 25.570312 4.328125 25.71875 4.078125 C 26.0625 3.734375 26.257812 3.285156 26.3125 2.734375 C 26.457031 2.296875 26.601562 1.382812 26.75 0 L 9.703125 0 C 6.890625 0 4.960938 -0.0703125 3.921875 -0.21875 C 2.492188 -0.519531 1.554688 -1.066406 1.109375 -1.859375 C 0.816406 -2.398438 0.671875 -3.140625 0.671875 -4.078125 C 0.671875 -4.722656 0.742188 -5.5625 0.890625 -6.59375 C 0.941406 -6.988281 1.003906 -7.503906 1.078125 -8.140625 C 1.148438 -8.785156 1.234375 -9.554688 1.328125 -10.453125 L 3.5625 -26.390625 L 4.296875 -31.421875 C 4.398438 -31.816406 4.453125 -32.132812 4.453125 -32.375 C 4.453125 -32.625 4.453125 -32.828125 4.453125 -32.984375 C 4.453125 -33.472656 4.398438 -33.816406 4.296875 -34.015625 C 4.242188 -34.210938 4.15625 -34.421875 4.03125 -34.640625 C 3.914062 -34.867188 3.734375 -35.082031 3.484375 -35.28125 C 3.378906 -35.425781 3.21875 -35.632812 3 -35.90625 C 2.78125 -36.175781 2.472656 -36.484375 2.078125 -36.828125 Z M 2.078125 -36.828125 "/></g></g></g></g><g fill="#ffffff" fill-opacity="1"><g transform="translate(89.8144, 59.831927)"><g><path d="M 4.453125 -26.3125 C 4.691406 -27.789062 4.882812 -29.007812 5.03125 -29.96875 C 5.1875 -30.9375 5.285156 -31.664062 5.328125 -32.15625 C 5.722656 -33.738281 6.242188 -34.828125 6.890625 -35.421875 C 7.484375 -36.015625 8.421875 -36.382812 9.703125 -36.53125 C 10.597656 -36.6875 12.082031 -36.765625 14.15625 -36.765625 C 14.40625 -36.765625 14.726562 -36.765625 15.125 -36.765625 C 15.519531 -36.765625 15.960938 -36.738281 16.453125 -36.6875 L 32.75 -36.6875 C 33.300781 -36.738281 33.757812 -36.765625 34.125 -36.765625 C 34.5 -36.765625 34.785156 -36.765625 34.984375 -36.765625 C 37.054688 -36.765625 38.535156 -36.6875 39.421875 -36.53125 C 40.460938 -36.382812 41.226562 -36.039062 41.71875 -35.5 C 42.21875 -34.957031 42.46875 -33.992188 42.46875 -32.609375 C 42.46875 -31.671875 42.242188 -29.570312 41.796875 -26.3125 L 41.421875 -23.5625 L 39.9375 -13.125 L 39.578125 -10.453125 C 39.234375 -7.734375 38.9375 -5.878906 38.6875 -4.890625 C 38.382812 -3.410156 37.960938 -2.347656 37.421875 -1.703125 C 36.828125 -1.054688 35.914062 -0.585938 34.6875 -0.296875 C 34.1875 -0.242188 33.34375 -0.179688 32.15625 -0.109375 C 30.976562 -0.0351562 29.445312 0 27.5625 0 L 29.046875 -10.453125 L 29.421875 -13.125 L 30.90625 -23.5625 L 31.28125 -26.3125 C 30.78125 -26.3125 30.359375 -26.3125 30.015625 -26.3125 C 29.671875 -26.3125 29.421875 -26.285156 29.265625 -26.234375 C 28.972656 -26.234375 28.703125 -26.109375 28.453125 -25.859375 C 28.359375 -25.765625 28.238281 -25.445312 28.09375 -24.90625 C 28.09375 -24.707031 28.015625 -24.257812 27.859375 -23.5625 L 26.390625 -13.125 L 26.015625 -10.453125 C 25.816406 -8.921875 25.628906 -7.644531 25.453125 -6.625 C 25.285156 -5.613281 25.125 -4.835938 24.96875 -4.296875 C 24.675781 -3.066406 24.207031 -2.128906 23.5625 -1.484375 C 23.125 -1.035156 22.382812 -0.664062 21.34375 -0.375 C 20.851562 -0.269531 19.988281 -0.179688 18.75 -0.109375 C 17.507812 -0.0351562 15.925781 0 14 0 L 15.484375 -10.453125 L 15.859375 -13.125 L 17.34375 -23.5625 L 17.71875 -26.3125 C 16.820312 -26.3125 16.273438 -26.285156 16.078125 -26.234375 C 15.679688 -26.234375 15.382812 -26.132812 15.1875 -25.9375 C 15.144531 -25.882812 15.097656 -25.769531 15.046875 -25.59375 C 14.992188 -25.425781 14.921875 -25.21875 14.828125 -24.96875 C 14.828125 -24.769531 14.75 -24.300781 14.59375 -23.5625 L 13.125 -13.125 L 12.75 -10.453125 C 12.550781 -8.773438 12.335938 -7.40625 12.109375 -6.34375 C 11.890625 -5.28125 11.707031 -4.472656 11.5625 -3.921875 C 11.257812 -2.640625 10.71875 -1.726562 9.9375 -1.1875 C 9.238281 -0.644531 8.195312 -0.296875 6.8125 -0.140625 C 6.320312 -0.0976562 5.617188 -0.0625 4.703125 -0.03125 C 3.785156 -0.0078125 2.613281 0 1.1875 0 L -2.21875 0 C -1.226562 -0.84375 -0.613281 -1.382812 -0.375 -1.625 C 0.164062 -2.019531 0.535156 -2.414062 0.734375 -2.8125 C 0.929688 -3.15625 1.109375 -3.503906 1.265625 -3.859375 C 1.359375 -4.148438 1.429688 -4.59375 1.484375 -5.1875 L 2.21875 -10.453125 L 2.59375 -13.125 L 4.078125 -23.5625 Z M 4.453125 -26.3125 "/></g></g></g><g fill="#ffffff" fill-opacity="1"><g transform="translate(132.93991, 59.831927)"><g/></g></g><g fill="#ffffff" fill-opacity="1"><g transform="translate(155.169543, 59.831927)"><g><path d="M 7.859375 -51.875 C 11.367188 -51.875 13.59375 -51.800781 14.53125 -51.65625 C 15.90625 -51.507812 16.789062 -51.015625 17.1875 -50.171875 C 17.488281 -49.679688 17.640625 -48.914062 17.640625 -47.875 C 17.640625 -47.675781 17.640625 -47.453125 17.640625 -47.203125 C 17.640625 -46.960938 17.613281 -46.691406 17.5625 -46.390625 C 17.507812 -45.941406 17.429688 -45.3125 17.328125 -44.5 C 17.234375 -43.6875 17.113281 -42.660156 16.96875 -41.421875 L 16.296875 -36.765625 L 14.828125 -26.3125 L 14.453125 -23.5625 L 30.75 -23.5625 L 31.125 -26.390625 C 31.320312 -27.671875 31.492188 -28.753906 31.640625 -29.640625 C 31.785156 -30.535156 31.882812 -31.203125 31.9375 -31.640625 C 32.238281 -33.078125 32.632812 -34.164062 33.125 -34.90625 C 33.71875 -35.695312 34.65625 -36.21875 35.9375 -36.46875 C 36.488281 -36.5625 37.34375 -36.632812 38.5 -36.6875 C 39.65625 -36.738281 41.148438 -36.765625 42.984375 -36.765625 L 43.125 -36.765625 L 41.28125 -23.5625 C 41.226562 -23.21875 41.148438 -22.875 41.046875 -22.53125 C 40.953125 -22.1875 40.832031 -21.863281 40.6875 -21.5625 C 40.632812 -21.3125 40.535156 -21.078125 40.390625 -20.859375 C 40.242188 -20.640625 40.09375 -20.40625 39.9375 -20.15625 C 39.644531 -19.757812 39.300781 -19.4375 38.90625 -19.1875 C 38.507812 -18.945312 37.96875 -18.703125 37.28125 -18.453125 C 37.875 -18.304688 38.367188 -18.035156 38.765625 -17.640625 C 39.160156 -17.335938 39.429688 -16.914062 39.578125 -16.375 C 39.671875 -16.175781 39.742188 -15.96875 39.796875 -15.75 C 39.847656 -15.53125 39.875 -15.269531 39.875 -14.96875 C 39.875 -14.875 39.882812 -14.765625 39.90625 -14.640625 C 39.925781 -14.515625 39.9375 -14.398438 39.9375 -14.296875 C 39.9375 -14.097656 39.925781 -13.910156 39.90625 -13.734375 C 39.882812 -13.566406 39.847656 -13.382812 39.796875 -13.1875 L 39.421875 -10.453125 C 39.023438 -7.429688 38.707031 -5.453125 38.46875 -4.515625 C 38.164062 -3.179688 37.691406 -2.195312 37.046875 -1.5625 C 36.503906 -1.007812 35.640625 -0.585938 34.453125 -0.296875 C 33.960938 -0.242188 33.132812 -0.179688 31.96875 -0.109375 C 30.8125 -0.0351562 29.296875 0 27.421875 0 L 28.90625 -10.453125 L 29.265625 -13.1875 L 12.96875 -13.1875 L 12.59375 -10.453125 C 12.445312 -9.210938 12.300781 -8.171875 12.15625 -7.328125 C 12.007812 -6.492188 11.882812 -5.851562 11.78125 -5.40625 C 11.488281 -3.820312 11.09375 -2.6875 10.59375 -2 C 10.050781 -1.257812 9.285156 -0.738281 8.296875 -0.4375 C 7.265625 -0.144531 4.820312 0 0.96875 0 L -2.21875 0 C -1.625 -0.445312 -1.15625 -0.816406 -0.8125 -1.109375 C -0.46875 -1.410156 -0.222656 -1.632812 -0.078125 -1.78125 C 0.367188 -2.226562 0.664062 -2.625 0.8125 -2.96875 C 0.914062 -3.113281 0.988281 -3.257812 1.03125 -3.40625 C 1.082031 -3.550781 1.132812 -3.722656 1.1875 -3.921875 C 1.1875 -4.078125 1.195312 -4.265625 1.21875 -4.484375 C 1.25 -4.703125 1.285156 -4.984375 1.328125 -5.328125 L 2.078125 -10.453125 L 2.453125 -13.1875 L 3.921875 -23.5625 L 4.296875 -26.3125 L 5.78125 -36.765625 L 6.453125 -41.5 Z M 7.859375 -51.875 "/></g></g></g><g fill="#ffffff" fill-opacity="1"><g transform="translate(197.850458, 59.831927)"><g><path d="M 5.046875 -51.875 L 12.671875 -51.875 C 13.859375 -51.875 14.820312 -51.75 15.5625 -51.5 C 16.40625 -51.351562 17 -51.035156 17.34375 -50.546875 C 17.789062 -50.046875 18.015625 -49.226562 18.015625 -48.09375 C 18.015625 -48.039062 18.015625 -47.953125 18.015625 -47.828125 C 18.015625 -47.710938 17.988281 -47.582031 17.9375 -47.4375 C 17.9375 -46.9375 17.859375 -46.191406 17.703125 -45.203125 C 17.554688 -44.210938 17.363281 -42.953125 17.125 -41.421875 L 16.453125 -36.765625 L 34.015625 -36.765625 C 35.203125 -36.765625 36.203125 -36.765625 37.015625 -36.765625 C 37.828125 -36.765625 38.457031 -36.710938 38.90625 -36.609375 C 40.289062 -36.460938 41.253906 -36.066406 41.796875 -35.421875 C 42.242188 -34.929688 42.46875 -34.019531 42.46875 -32.6875 L 42.46875 -31.9375 C 42.46875 -31 42.242188 -29.125 41.796875 -26.3125 L 39.578125 -10.453125 C 39.429688 -9.160156 39.296875 -8.070312 39.171875 -7.1875 C 39.046875 -6.300781 38.929688 -5.632812 38.828125 -5.1875 C 38.535156 -3.851562 38.164062 -2.816406 37.71875 -2.078125 C 37.125 -1.140625 35.914062 -0.519531 34.09375 -0.21875 C 33.050781 -0.0703125 31.125 0 28.3125 0 L 27.5625 0 L 29.046875 -10.453125 L 31.28125 -26.3125 L 14.96875 -26.3125 L 12.75 -10.453125 C 12.550781 -8.960938 12.363281 -7.722656 12.1875 -6.734375 C 12.019531 -5.753906 11.859375 -4.992188 11.703125 -4.453125 C 11.410156 -3.015625 10.921875 -2 10.234375 -1.40625 C 9.484375 -0.757812 8.421875 -0.363281 7.046875 -0.21875 C 6.003906 -0.0703125 4.125 0 1.40625 0 L 0.734375 0 L 2.21875 -10.453125 L 4.96875 -30.234375 L 7.34375 -47.203125 C 7.488281 -47.898438 7.5625 -48.320312 7.5625 -48.46875 C 7.5625 -49.007812 7.507812 -49.351562 7.40625 -49.5 C 7.257812 -49.800781 6.960938 -50.171875 6.515625 -50.609375 C 6.421875 -50.765625 6.25 -50.941406 6 -51.140625 C 5.75 -51.335938 5.429688 -51.582031 5.046875 -51.875 Z M 5.046875 -51.875 "/></g></g></g><g fill="#ffffff" fill-opacity="1"><g transform="translate(241.050067, 59.831927)"><g><path d="M 33.796875 -36.765625 C 35.960938 -36.765625 37.492188 -36.6875 38.390625 -36.53125 C 39.472656 -36.382812 40.210938 -36.140625 40.609375 -35.796875 C 41.347656 -35.296875 41.71875 -34.257812 41.71875 -32.6875 C 41.71875 -32.53125 41.71875 -32.378906 41.71875 -32.234375 C 41.71875 -32.085938 41.695312 -31.890625 41.65625 -31.640625 C 41.65625 -31.203125 41.601562 -30.535156 41.5 -29.640625 C 41.40625 -28.753906 41.257812 -27.644531 41.0625 -26.3125 L 39.875 -18.015625 L 38.828125 -10.453125 C 38.628906 -8.671875 38.421875 -7.222656 38.203125 -6.109375 C 37.984375 -5.003906 37.773438 -4.175781 37.578125 -3.625 C 37.273438 -2.59375 36.78125 -1.804688 36.09375 -1.265625 C 35.550781 -0.867188 34.734375 -0.546875 33.640625 -0.296875 C 33.148438 -0.242188 32.3125 -0.179688 31.125 -0.109375 C 29.9375 -0.0351562 28.40625 0 26.53125 0 L 10.453125 0 C 8.671875 0 7.210938 -0.0351562 6.078125 -0.109375 C 4.941406 -0.179688 4.101562 -0.242188 3.5625 -0.296875 C 2.519531 -0.546875 1.773438 -0.914062 1.328125 -1.40625 C 0.929688 -1.945312 0.734375 -2.8125 0.734375 -4 L 0.734375 -4.453125 C 0.835938 -5.484375 1.0625 -7.484375 1.40625 -10.453125 L 1.859375 -13.1875 C 2.054688 -14.519531 2.226562 -15.628906 2.375 -16.515625 C 2.519531 -17.410156 2.617188 -18.082031 2.671875 -18.53125 C 3.015625 -20.257812 3.507812 -21.441406 4.15625 -22.078125 C 4.84375 -22.773438 5.804688 -23.195312 7.046875 -23.34375 C 8.078125 -23.488281 9.976562 -23.5625 12.75 -23.5625 L 28.234375 -23.5625 C 28.535156 -23.5625 28.796875 -23.570312 29.015625 -23.59375 C 29.234375 -23.625 29.367188 -23.640625 29.421875 -23.640625 C 29.671875 -23.691406 29.894531 -23.816406 30.09375 -24.015625 C 30.238281 -24.160156 30.3125 -24.378906 30.3125 -24.671875 C 30.40625 -24.972656 30.476562 -25.519531 30.53125 -26.3125 L 14.234375 -26.3125 C 12.898438 -26.3125 11.773438 -26.320312 10.859375 -26.34375 C 9.941406 -26.375 9.257812 -26.410156 8.8125 -26.453125 C 7.53125 -26.648438 6.617188 -27.097656 6.078125 -27.796875 C 5.628906 -28.484375 5.332031 -29.617188 5.1875 -31.203125 C 5.1875 -31.640625 5.171875 -32.226562 5.140625 -32.96875 C 5.117188 -33.71875 5.109375 -34.5625 5.109375 -35.5 L 5.109375 -36.765625 Z M 14.078125 -13.1875 C 13.441406 -13.1875 13.070312 -13.164062 12.96875 -13.125 C 12.820312 -13.125 12.648438 -13.023438 12.453125 -12.828125 C 12.347656 -12.722656 12.25 -12.347656 12.15625 -11.703125 C 12.15625 -11.460938 12.082031 -11.046875 11.9375 -10.453125 L 26.453125 -10.453125 C 26.753906 -10.453125 27.015625 -10.460938 27.234375 -10.484375 C 27.453125 -10.515625 27.585938 -10.53125 27.640625 -10.53125 C 27.941406 -10.570312 28.113281 -10.664062 28.15625 -10.8125 C 28.257812 -10.914062 28.359375 -11.164062 28.453125 -11.5625 C 28.554688 -11.851562 28.632812 -12.394531 28.6875 -13.1875 Z M 14.078125 -13.1875 "/></g></g></g><g fill="#ffffff" fill-opacity="1"><g transform="translate(283.434585, 59.831927)"><g><path d="M 4.453125 -26.234375 C 4.648438 -27.671875 4.820312 -28.84375 4.96875 -29.75 C 5.113281 -30.664062 5.210938 -31.347656 5.265625 -31.796875 C 5.554688 -33.328125 5.972656 -34.390625 6.515625 -34.984375 C 7.109375 -35.816406 8.097656 -36.3125 9.484375 -36.46875 C 10.472656 -36.613281 12.03125 -36.6875 14.15625 -36.6875 L 34.984375 -36.6875 C 35.671875 -36.6875 36.273438 -36.6875 36.796875 -36.6875 C 37.316406 -36.6875 37.75 -36.660156 38.09375 -36.609375 C 39.625 -36.554688 40.710938 -36.285156 41.359375 -35.796875 C 42.097656 -35.296875 42.46875 -34.234375 42.46875 -32.609375 C 42.46875 -31.617188 42.242188 -29.492188 41.796875 -26.234375 L 41.421875 -23.5625 L 39.9375 -13.125 L 39.578125 -10.375 C 39.378906 -8.84375 39.191406 -7.570312 39.015625 -6.5625 C 38.847656 -5.550781 38.6875 -4.796875 38.53125 -4.296875 C 38.238281 -3.210938 37.867188 -2.347656 37.421875 -1.703125 C 36.828125 -1.054688 35.914062 -0.585938 34.6875 -0.296875 C 34.1875 -0.242188 33.34375 -0.179688 32.15625 -0.109375 C 30.976562 -0.0351562 29.445312 0 27.5625 0 L 29.046875 -10.375 L 29.421875 -13.125 L 30.90625 -23.5625 L 31.28125 -26.234375 L 17.71875 -26.234375 C 17.519531 -26.285156 17.34375 -26.3125 17.1875 -26.3125 C 17.039062 -26.3125 16.894531 -26.3125 16.75 -26.3125 C 16.40625 -26.3125 16.179688 -26.285156 16.078125 -26.234375 C 15.734375 -26.234375 15.488281 -26.160156 15.34375 -26.015625 C 15.144531 -25.816406 14.972656 -25.519531 14.828125 -25.125 C 14.828125 -24.925781 14.75 -24.40625 14.59375 -23.5625 L 13.125 -13.125 L 12.75 -10.375 C 12.40625 -7.757812 12.109375 -5.957031 11.859375 -4.96875 C 11.710938 -4.175781 11.515625 -3.507812 11.265625 -2.96875 C 11.015625 -2.425781 10.742188 -1.957031 10.453125 -1.5625 C 9.804688 -0.8125 8.671875 -0.335938 7.046875 -0.140625 C 6.546875 -0.0976562 5.800781 -0.0625 4.8125 -0.03125 C 3.820312 -0.0078125 2.613281 0 1.1875 0 L -2.21875 0 C -1.226562 -0.84375 -0.613281 -1.382812 -0.375 -1.625 C 0.21875 -2.125 0.613281 -2.519531 0.8125 -2.8125 C 0.914062 -2.957031 0.988281 -3.09375 1.03125 -3.21875 C 1.082031 -3.34375 1.132812 -3.476562 1.1875 -3.625 C 1.28125 -3.875 1.378906 -4.394531 1.484375 -5.1875 L 2.21875 -10.375 L 2.59375 -13.125 L 4.078125 -23.5625 Z M 4.453125 -26.234375 "/></g></g></g><g fill="#ffffff" fill-opacity="1"><g transform="translate(326.560095, 59.831927)"><g><path d="M 33.796875 -36.765625 C 35.960938 -36.765625 37.492188 -36.6875 38.390625 -36.53125 C 39.472656 -36.382812 40.210938 -36.140625 40.609375 -35.796875 C 41.347656 -35.296875 41.71875 -34.257812 41.71875 -32.6875 C 41.71875 -32.53125 41.71875 -32.378906 41.71875 -32.234375 C 41.71875 -32.085938 41.695312 -31.890625 41.65625 -31.640625 C 41.65625 -31.203125 41.601562 -30.535156 41.5 -29.640625 C 41.40625 -28.753906 41.257812 -27.644531 41.0625 -26.3125 L 39.875 -18.015625 L 38.828125 -10.453125 C 38.628906 -8.671875 38.421875 -7.222656 38.203125 -6.109375 C 37.984375 -5.003906 37.773438 -4.175781 37.578125 -3.625 C 37.273438 -2.59375 36.78125 -1.804688 36.09375 -1.265625 C 35.550781 -0.867188 34.734375 -0.546875 33.640625 -0.296875 C 33.148438 -0.242188 32.3125 -0.179688 31.125 -0.109375 C 29.9375 -0.0351562 28.40625 0 26.53125 0 L 10.453125 0 C 8.671875 0 7.210938 -0.0351562 6.078125 -0.109375 C 4.941406 -0.179688 4.101562 -0.242188 3.5625 -0.296875 C 2.519531 -0.546875 1.773438 -0.914062 1.328125 -1.40625 C 0.929688 -1.945312 0.734375 -2.8125 0.734375 -4 L 0.734375 -4.453125 C 0.835938 -5.484375 1.0625 -7.484375 1.40625 -10.453125 L 1.859375 -13.1875 C 2.054688 -14.519531 2.226562 -15.628906 2.375 -16.515625 C 2.519531 -17.410156 2.617188 -18.082031 2.671875 -18.53125 C 3.015625 -20.257812 3.507812 -21.441406 4.15625 -22.078125 C 4.84375 -22.773438 5.804688 -23.195312 7.046875 -23.34375 C 8.078125 -23.488281 9.976562 -23.5625 12.75 -23.5625 L 28.234375 -23.5625 C 28.535156 -23.5625 28.796875 -23.570312 29.015625 -23.59375 C 29.234375 -23.625 29.367188 -23.640625 29.421875 -23.640625 C 29.671875 -23.691406 29.894531 -23.816406 30.09375 -24.015625 C 30.238281 -24.160156 30.3125 -24.378906 30.3125 -24.671875 C 30.40625 -24.972656 30.476562 -25.519531 30.53125 -26.3125 L 14.234375 -26.3125 C 12.898438 -26.3125 11.773438 -26.320312 10.859375 -26.34375 C 9.941406 -26.375 9.257812 -26.410156 8.8125 -26.453125 C 7.53125 -26.648438 6.617188 -27.097656 6.078125 -27.796875 C 5.628906 -28.484375 5.332031 -29.617188 5.1875 -31.203125 C 5.1875 -31.640625 5.171875 -32.226562 5.140625 -32.96875 C 5.117188 -33.71875 5.109375 -34.5625 5.109375 -35.5 L 5.109375 -36.765625 Z M 14.078125 -13.1875 C 13.441406 -13.1875 13.070312 -13.164062 12.96875 -13.125 C 12.820312 -13.125 12.648438 -13.023438 12.453125 -12.828125 C 12.347656 -12.722656 12.25 -12.347656 12.15625 -11.703125 C 12.15625 -11.460938 12.082031 -11.046875 11.9375 -10.453125 L 26.453125 -10.453125 C 26.753906 -10.453125 27.015625 -10.460938 27.234375 -10.484375 C 27.453125 -10.515625 27.585938 -10.53125 27.640625 -10.53125 C 27.941406 -10.570312 28.113281 -10.664062 28.15625 -10.8125 C 28.257812 -10.914062 28.359375 -11.164062 28.453125 -11.5625 C 28.554688 -11.851562 28.632812 -12.394531 28.6875 -13.1875 Z M 14.078125 -13.1875 "/></g></g></g></g></g><g transform="matrix(1, 0, 0, 1, 118, 247)"><g clip-path="url(#d058b3d1dc)"><g fill="#be1c2d" fill-opacity="1"><g transform="translate(1.348681, 19.012888)"><g><path d="M 5.90625 -12.84375 L 3.625 -2.125 L 9.40625 -2.125 L 8.953125 0 L 0.640625 0 L 3.359375 -12.84375 Z M 5.90625 -12.84375 "/></g></g></g><g fill="#be1c2d" fill-opacity="1"><g transform="translate(24.463208, 19.012888)"><g><path d="M 11.296875 0 L 8.703125 0 L 8.375 -2.96875 L 3.484375 -2.96875 L 1.90625 0 L -0.828125 0 L 6.296875 -12.84375 L 9.5625 -12.84375 Z M 7.328125 -10.171875 L 4.625 -5.09375 L 8.125 -5.09375 L 7.546875 -10.171875 Z M 7.328125 -10.171875 "/></g></g></g><g fill="#be1c2d" fill-opacity="1"><g transform="translate(49.69409, 19.012888)"><g><path d="M 10.640625 -8.015625 L 11.671875 -12.84375 L 14.203125 -12.84375 L 11.484375 0 L 8.953125 0 L 10.1875 -5.859375 L 4.421875 -5.859375 L 3.1875 0 L 0.640625 0 L 3.359375 -12.84375 L 5.90625 -12.84375 L 4.875 -8.015625 Z M 10.640625 -8.015625 "/></g></g></g><g fill="#be1c2d" fill-opacity="1"><g transform="translate(76.575903, 19.012888)"><g><path d="M 6.203125 0.1875 C 5.191406 0.1875 4.3125 0.00390625 3.5625 -0.359375 C 2.820312 -0.734375 2.242188 -1.285156 1.828125 -2.015625 C 1.421875 -2.753906 1.21875 -3.664062 1.21875 -4.75 C 1.21875 -5.425781 1.296875 -6.15625 1.453125 -6.9375 C 1.734375 -8.269531 2.203125 -9.390625 2.859375 -10.296875 C 3.515625 -11.203125 4.316406 -11.882812 5.265625 -12.34375 C 6.222656 -12.800781 7.296875 -13.03125 8.484375 -13.03125 C 9.492188 -13.03125 10.375 -12.847656 11.125 -12.484375 C 11.875 -12.117188 12.453125 -11.570312 12.859375 -10.84375 C 13.265625 -10.113281 13.46875 -9.207031 13.46875 -8.125 C 13.46875 -7.425781 13.378906 -6.6875 13.203125 -5.90625 C 12.921875 -4.570312 12.457031 -3.453125 11.8125 -2.546875 C 11.164062 -1.640625 10.367188 -0.957031 9.421875 -0.5 C 8.472656 -0.0390625 7.398438 0.1875 6.203125 0.1875 Z M 6.40625 -2.015625 C 7.488281 -2.015625 8.394531 -2.375 9.125 -3.09375 C 9.851562 -3.8125 10.378906 -4.921875 10.703125 -6.421875 C 10.816406 -7.003906 10.875 -7.53125 10.875 -8 C 10.875 -8.914062 10.648438 -9.617188 10.203125 -10.109375 C 9.753906 -10.597656 9.113281 -10.84375 8.28125 -10.84375 C 7.195312 -10.84375 6.285156 -10.484375 5.546875 -9.765625 C 4.816406 -9.046875 4.289062 -7.929688 3.96875 -6.421875 C 3.84375 -5.859375 3.78125 -5.335938 3.78125 -4.859375 C 3.78125 -3.941406 4.003906 -3.238281 4.453125 -2.75 C 4.910156 -2.257812 5.5625 -2.015625 6.40625 -2.015625 Z M 6.40625 -2.015625 "/></g></g></g><g fill="#be1c2d" fill-opacity="1"><g transform="translate(103.282086, 19.012888)"><g><path d="M 0.640625 0 L 3.359375 -12.84375 L 8.265625 -12.84375 C 9.015625 -12.84375 9.65625 -12.726562 10.1875 -12.5 C 10.726562 -12.28125 11.140625 -11.953125 11.421875 -11.515625 C 11.703125 -11.085938 11.84375 -10.570312 11.84375 -9.96875 C 11.84375 -9.6875 11.8125 -9.378906 11.75 -9.046875 C 11.59375 -8.316406 11.242188 -7.707031 10.703125 -7.21875 C 10.171875 -6.726562 9.523438 -6.425781 8.765625 -6.3125 L 8.71875 -6.125 C 9.101562 -5.945312 9.382812 -5.6875 9.5625 -5.34375 C 9.75 -5 9.878906 -4.492188 9.953125 -3.828125 L 10.109375 -2.5 L 10.4375 0 L 7.875 0 L 7.828125 -0.359375 C 7.785156 -0.742188 7.726562 -1.226562 7.65625 -1.8125 C 7.59375 -2.394531 7.519531 -3.070312 7.4375 -3.84375 C 7.382812 -4.226562 7.300781 -4.523438 7.1875 -4.734375 C 7.070312 -4.953125 6.898438 -5.109375 6.671875 -5.203125 C 6.441406 -5.304688 6.128906 -5.359375 5.734375 -5.359375 L 4.3125 -5.359375 L 3.1875 0 Z M 7.0625 -7.359375 C 7.707031 -7.359375 8.203125 -7.492188 8.546875 -7.765625 C 8.898438 -8.046875 9.132812 -8.460938 9.25 -9.015625 C 9.289062 -9.203125 9.3125 -9.378906 9.3125 -9.546875 C 9.3125 -9.984375 9.175781 -10.304688 8.90625 -10.515625 C 8.632812 -10.734375 8.25 -10.84375 7.75 -10.84375 L 5.484375 -10.84375 L 4.75 -7.359375 Z M 7.0625 -7.359375 "/></g></g></g><g fill="#be1c2d" fill-opacity="1"><g transform="translate(128.003636, 19.012888)"><g><path d="M 11.90625 -12.84375 L 11.453125 -10.71875 L 5.453125 -10.71875 L 4.8125 -7.71875 L 10.0625 -7.71875 L 9.609375 -5.640625 L 4.375 -5.640625 L 3.625 -2.125 L 9.765625 -2.125 L 9.3125 0 L 0.640625 0 L 3.359375 -12.84375 Z M 11.90625 -12.84375 "/></g></g></g></g></g></svg>